# xmcd
#
# Track frame offsets:
#	182
#	24537
#	44147
#	66527
#	87150
#	111350
#	124047
#	139950
#	160152
#	181850
#	197507
#
# Disc length: 3304
#
# Revision: 1
# Processed by: cddbd v1.5.1PL0 Copyright (c) Steve Scherf et al.
# Submitted via: CDex 1.40Beta8
# Normalized: r0:DSETVAR1,TDELIM( - )
#
DISCID=9e0ce60b
DTITLE=Various Artist - Les Plus Grand Moments Du Blues
DYEAR=1990
DGENRE=Blues
TTITLE0=Muddy Waters - Mannish Boy
TTITLE1=Johnny Winter - Everybody's Blues
TTITLE2=Jeff Beck - Tonight I'll Be Staying Here With You
TTITLE3=Omar And The Howlers - Down In Mississippi
TTITLE4=Stevie Ray Vaughan - Texas Flood
TTITLE5=Aretha Franklin - Today I Song The Blues
TTITLE6=Ray Charles - Nothing Like A Hundred Miles
TTITLE7=Taj Mahal - Dust My Broom
TTITLE8=The Electric Flag - Texas
TTITLE9=The Gregg Allman Band - Demons
TTITLE10=Mike Bloomfield - Season Of The Witch
EXTD=YEAR: 1990 ID3G: 0
EXTT0=
EXTT1=
EXTT2=
EXTT3=
EXTT4=
EXTT5=
EXTT6=
EXTT7=
EXTT8=
EXTT9=
EXTT10=
PLAYORDER=
